<?xml version="1.0" encoding="utf-8"?>
<!-- Generator: Adobe Illustrator 24.3.0, SVG Export Plug-In . SVG Version: 6.00 Build 0)  -->
<svg version="1.1" id="Layer_1" xmlns="http://www.w3.org/2000/svg" xmlns:xlink="http://www.w3.org/1999/xlink" x="0px" y="0px"
	 viewBox="0 0 615.2 254.2" style="enable-background:new 0 0 615.2 254.2;" xml:space="preserve">
<g>
	<path d="M84.7,49c-13-5-27.1,6.5-34.3,12.4c-7.6,6.2-12.3,12.9-14.9,17.3c-4.5,6.6-10.1,16.4-13.9,29c-5.2,17.1-4.9,31.9-4.1,41.1
		c0.2,2.3,1.8,15.5,13.3,23.8c6.7,4.8,13.5,5.7,16.8,5.9c4.5-0.1,11.1-0.9,18.3-4.1c15.2-6.9,22-20.1,24-24.4c0.5-1.2,0.2-2.5-0.6-3
		c-0.9-0.6-2.8-0.2-3.5,1.5C74.4,168,54.9,175,43,169c-8.2-4.1-11.2-13.7-12.2-17.5c-1.9-7.5-3.5-15.5-1.5-28.2
		c4.3-27.3,18.1-50.9,34.7-62.6c7.3-5.1,11.8-5.6,15.1-4.5c5.3,1.8,7.7,8,8.5,10.2c3,7.9,0.8,15.3-0.4,19.3
		c-0.9,3.1-6.9,21.2-25.3,27.9c-8.9,3.2-16.9,2.4-21.5,1.5c-1.1-0.1-2,0.5-2.1,1.2c-0.2,0.8,0.7,2,2.1,2c2.8,0.9,6.3,1.7,10.5,2.1
		c5.3,0.5,9.8,0,13.2-0.6c6.4-1.2,10.8-4.2,13-5.7c10.5-6.8,15.7-16.5,18-21.5c1.4-2.1,6.8-11.1,4.7-22.8
		C99.5,68.5,96.5,53.6,84.7,49z"/>
	<path d="M208.7,163.9c-0.7-0.4-1.7-0.3-2.3,0.3c-0.4,1.5-1.5,4.4-4,7c-3.2,3.3-8.9,7.1-13.1,3.3c-2.6-2.3-2.4-7.9-2.7-11.1
		c-0.4-4.4-0.7-9-0.6-13.3c0.2-14.8,3.2-28.8,6.2-43.3c3-14.2,6.1-28.5,11.1-42.2c0.8-2.3-0.2-4.8-2.3-5.8c-2.3-1-5.1,0-6.1,2.5
		c-7,12-49.2,84-57.6,88.1c-4.3,2.1-8.9,1.2-9.9-4.1c-1.4-7.8-0.2-17.1,0.7-24.9c0.7-6.3,1.8-12.6,3.4-18.8
		c0.9-3.7,5-19.4,14.9-33.8c3.7-5.4,7.9-10.1,14.4-12.9c3.9-1.7,8.5-3.2,12.4-1.1c3.3,1.7,6.2,4.2,8.3,7.3c0.2,0.3,0.5,1.3,1.2,1.5
		c1,0.2,2.5-1.2,2.9-2.5c1.1-3.3-4.2-8.1-8-10.6c-3.4-2.3-7.5-3.5-12-3.4c-9.9,0.2-18.1,6.9-24.8,13.6
		c-15.5,15.4-25.5,35.9-28.1,57.6c-0.8,7.2-0.6,15,0,22.3c0.8,10.2,7.3,20.6,18.9,19.1c7.9-1,13.8-8.1,18.6-13.9
		c3.8-4.5,7-8.4,14.7-20.2c4.6-7,9.1-14.2,13.6-21.3l-2,14c-0.7,5.6-1.2,11.2-1.5,16.8c-0.5,11,0.1,22.1,3.1,32.7
		c1.9,6.7,4.8,14.8,12.6,16.1c5.1,0.9,10.2-1.5,13.4-5.4c3.5-4.2,4.7-8.6,5.1-10.9C210,165.5,209.6,164.4,208.7,163.9z"/>
	<path d="M363.3,182.9c5.1,0.9,10.2-1.5,13.4-5.4c3.5-4.2,4.7-8.6,5.1-10.9c0.4-1,0-2.2-0.8-2.7c-0.7-0.4-1.7-0.3-2.3,0.3
		c-0.4,1.5-1.5,4.4-4,7c-3.2,3.3-8.9,7.1-13.1,3.3c-2.6-2.3-2.4-7.9-2.7-11.1c-0.4-4.4-0.7-9-0.6-13.3c0.2-14.8,3.2-28.8,6.2-43.3
		c3-14.2,6.1-28.5,11.1-42.2c0.8-2.3-0.2-4.8-2.3-5.8c-2.3-1-5.1,0-6.1,2.5c-7,12-49.2,84-57.6,88.1c-4.3,2.1-8.9,1.2-9.9-4.1
		c-1.4-7.8-0.2-17.1,0.7-24.9c0.7-6.3,1.8-12.6,3.4-18.8c0.9-3.7,5-19.4,14.9-33.8c3.7-5.4,7.9-10.1,14.4-12.9
		c3.9-1.7,8.5-3.2,12.4-1.1c3.3,1.7,6.2,4.2,8.3,7.3c0.2,0.3,0.5,1.3,1.2,1.5c1,0.2,2.5-1.2,2.9-2.5c1.1-3.3-4.2-8.1-8-10.6
		c-3.4-2.3-7.5-3.5-12-3.4c-9.9,0.2-18.1,6.9-24.8,13.6c-15.5,15.4-25.5,35.9-28.1,57.6c-0.8,7.2-0.6,15,0,22.3
		c0.8,10.2,7.3,20.6,18.9,19.1c7.9-1,13.8-8.1,18.6-13.9c3.8-4.5,7-8.4,14.7-20.2c4.6-7,9.1-14.2,13.6-21.3l-2,14
		c-0.7,5.6-1.2,11.2-1.5,16.8c-0.5,11,0.1,22.1,3.1,32.7C352.6,173.4,355.4,181.6,363.3,182.9z"/>
	<path d="M284.1,52.4c1.1-0.1,2.7,0,3.7-0.5c1.4-0.6,2.2-2,2-3.3c-0.1-1.1-0.9-2.1-2-2.5c-10.3,0.6-20.7,1.2-31,1.8
		c3.5-9.3,5-12.8,5-12.8c2.2-5.2,3.4-11,6.5-15.8c0.2-0.3,0.9-2.4,1.9-5.1c0.8-2.3,1.1-5.7-1.2-6.4c-1.3-0.4-2.9,0.6-3.4,1
		c-8.2,5.7-15.3,22.5-20.7,39.9c-4,0.2-7.9,0.4-11.9,0.7c-3.9,0.3-8.4-0.3-8.5,4.8c0,8.4,12.1,4.7,17.6,3.7
		c-5.6,20.4-8.9,39.2-8.9,39.2c-2.9,17.7-4.8,36-3.5,54c1,14.1,3,39.1,22.4,39.6c2.5,0.1,7.1-0.2,11.9-2.8
		c9.3-5,11.9-14.6,12.3-16.4c0.8-2.4,0.5-4.5-0.3-4.9c-0.8-0.4-2.7,0.9-4,3.4c-2.5,5.1-4.9,9.8-10.9,11.7c-3.9,1.2-7.5,0.3-8,0.2
		c-5.9-2.1-8.3-9.1-9.2-11.9c-7.4-21.7-1.8-80.8,9.7-113.8C263.8,55,274,53.7,284.1,52.4z"/>
	<path d="M421.1,190.7c2.5,0.1,7.1-0.2,11.9-2.8c9.3-5,11.9-14.6,12.3-16.4c0.8-2.4,0.5-4.5-0.3-4.9c-0.8-0.4-2.7,0.9-4,3.4
		c-2.5,5.1-4.9,9.8-10.9,11.7c-3.9,1.2-7.5,0.3-8,0.2c-5.9-2.1-8.3-9.1-9.2-11.9c-7.6-22.2-1.5-83.6,10.5-116.1
		c5.2-14,7.3-19,7.3-19c2.2-5.2,3.4-11,6.5-15.8c0.2-0.3,0.9-2.4,1.9-5.1c0.8-2.3,1.1-5.7-1.2-6.4c-1.3-0.4-2.9,0.6-3.4,1
		C415,22,402.1,97,402.1,97c-2.9,17.7-4.8,36-3.5,54C399.6,165.2,401.6,190.2,421.1,190.7z"/>
	<path d="M478.7,190.7c2.5,0.1,7.1-0.2,11.9-2.8c9.3-5,11.9-14.6,12.3-16.4c0.8-2.4,0.5-4.5-0.3-4.9c-0.8-0.4-2.7,0.9-4,3.4
		c-2.5,5.1-4.9,9.8-10.9,11.7c-3.9,1.2-7.5,0.3-8,0.2c-5.9-2.1-8.3-9.1-9.2-11.9c-7.6-22.2-1.5-83.6,10.5-116.1
		c5.2-14,7.3-19,7.3-19c2.2-5.2,3.4-11,6.5-15.8c0.2-0.3,0.9-2.4,1.9-5.1c0.8-2.3,1.1-5.7-1.2-6.4c-1.3-0.4-2.9,0.6-3.4,1
		C472.6,22,459.7,97,459.7,97c-2.9,17.7-4.8,36-3.5,54C457.2,165.2,459.3,190.2,478.7,190.7z"/>
	<path d="M596.2,55.1c-3.5-1.1-10.7,8-13.6,13.1c-3.7,6.6-6.9,13.5-10.7,20.1c-10,17-20.1,34.3-32.1,50c-2.5,3.3-11,16.2-16.8,13.8
		c-4-1.7-3.9-13.1,0.3-34.1c1.8-8.6,4.1-17.9,7-27.6c2.9-9.8,6.1-18.9,9.3-27.2c1.8-3.9,2.5-7.6,1.1-8.7c-7.3-6-17.6,17.1-19.3,20.9
		c-4.9,10.7-8.5,22-10.4,33.6c-1.3,8-1.9,16.1-1.8,24.1c0.1,3.3,0.2,6.6,0.6,9.9c0.4,4.4,0.5,7.9,3.6,11.3c2.4,2.7,5.6,4.2,9.2,4.3
		c7.4,0.2,14.5-4.6,19.6-9.5c7.9-7.6,15.1-16,21.3-25.1c2.6-3.8,5.1-7.7,7.3-11.8c1.3-2.4,5.2-7.3,5.2-10c0,10.7-1.2,66-43,103
		c-14,12.4-31.4,22.5-49.8,26.3c-42.6,8.7-91.3,0.4-126.2-26.3c-2.2-1.7-5.2-1.3-6.4,0.2c-1.4,1.8-0.9,5.3,2,6.9
		c3.9,2.1,7.6,4.7,11.5,6.8c0.4,0.2,0.8,0.4,1.2,0.6c39.9,21.5,90.7,33.3,134.7,17.8c24.4-8.6,39.2-23.8,47.9-32.4
		c37-36.7,44.2-81,48.9-110.6C597,92.5,602.6,57.1,596.2,55.1z"/>
</g>
</svg>
